<svg width="40" height="28" viewBox="0 0 40 28" fill="none" xmlns="http://www.w3.org/2000/svg">
<path d="M39.4563 6.82452C39.1071 6.78538 38.7826 6.96544 38.7303 7.22694L36.897 16.3936H32.4704L32.3779 14.7979H32.5623C32.7364 14.7979 32.9029 14.7445 33.0233 14.6502C33.1437 14.5559 33.2075 14.4288 33.2 14.2983L32.9781 10.4686C32.9632 10.2126 32.6821 10.0107 32.3403 10.0107H27.0212V8.33261C27.7641 8.13497 28.2978 7.60282 28.2978 6.9788V5.38306C28.2978 5.11862 28.012 4.90435 27.6595 4.90435H25.1063C24.7538 4.90435 24.468 5.11862 24.468 5.38306V6.9788C24.468 7.60288 25.0017 8.13503 25.7446 8.33261V10.0107H22.3403V5.38306C22.3403 4.58114 21.6193 3.90362 20.6382 3.69462V0.91499C20.6382 0.650557 20.3525 0.436279 20 0.436279C19.6475 0.436279 19.3617 0.650557 19.3617 0.91499V3.69462C18.3806 3.90362 17.6596 4.58114 17.6596 5.38306V10.0107H14.2553V8.33261C14.9982 8.13497 15.5319 7.60282 15.5319 6.9788V5.38306C15.5319 5.11862 15.2461 4.90435 14.8936 4.90435H12.3404C11.9879 4.90435 11.7021 5.11862 11.7021 5.38306V6.9788C11.7021 7.60288 12.2358 8.13503 12.9787 8.33261V10.0107H7.65956C7.31777 10.0107 7.03675 10.2126 7.02183 10.4686L6.79988 14.2983C6.79238 14.4288 6.85613 14.5559 6.9766 14.6502C7.09699 14.7446 7.26355 14.7979 7.43761 14.7979H7.62206L7.52956 16.3936H3.10292L1.26957 7.22694C1.21722 6.96544 0.892768 6.7852 0.543628 6.82452C0.195034 6.86372 -0.0451222 7.10753 0.0071434 7.36892L1.91496 16.908V27.085C1.91496 27.3494 2.20074 27.5637 2.55324 27.5637C2.90574 27.5637 3.19152 27.3494 3.19152 27.085V19.2659H7.363L7.02191 25.1493C7.01441 25.2798 7.07816 25.4069 7.19855 25.5012C7.31894 25.5956 7.4855 25.6489 7.65956 25.6489C8.44824 25.6489 9.06246 25.5692 9.57449 25.4518V27.085C9.57449 27.3494 9.86027 27.5637 10.2128 27.5637C10.5653 27.5637 10.851 27.3494 10.851 27.085V25.034C10.9193 25.0062 10.9868 24.9784 11.0531 24.951C11.6768 24.6929 12.2314 24.4646 13.1916 24.3947V27.085C13.1916 27.3494 13.4774 27.5637 13.8299 27.5637C14.1824 27.5637 14.4682 27.3494 14.4682 27.085V24.3947C15.4285 24.4646 15.9829 24.6929 16.6067 24.951C17.3972 25.2781 18.2932 25.6489 20.0002 25.6489C21.7071 25.6489 22.6031 25.2781 23.3936 24.951C24.0172 24.693 24.5717 24.4647 25.5316 24.3947V27.085C25.5316 27.3494 25.8174 27.5637 26.1699 27.5637C26.5224 27.5637 26.8082 27.3494 26.8082 27.085V24.3947C27.7685 24.4646 28.3232 24.6929 28.947 24.951C29.0132 24.9784 29.0806 25.0062 29.1488 25.0339V27.0851C29.1488 27.3496 29.4346 27.5638 29.7871 27.5638C30.1396 27.5638 30.4253 27.3496 30.4253 27.0851V25.4518C30.9374 25.5692 31.5515 25.6489 32.3403 25.6489C32.5144 25.6489 32.6809 25.5956 32.8013 25.5013C32.9217 25.4069 32.9854 25.2799 32.978 25.1494L32.637 19.266H36.8084V27.0851C36.8084 27.3495 37.0942 27.5638 37.4467 27.5638C37.7992 27.5638 38.085 27.3495 38.085 27.0851V16.9081L39.9928 7.36897C40.045 7.10753 39.8049 6.86366 39.4563 6.82452ZM7.41847 18.3085H3.19152V17.3511H7.47394L7.41847 18.3085ZM25.7446 5.86177H27.0211V6.9788C27.0211 7.24282 26.7348 7.45751 26.3828 7.45751C26.0309 7.45751 25.7446 7.24276 25.7446 6.9788V5.86177ZM18.9361 5.38306C18.9361 4.94308 19.4133 4.58519 20 4.58519C20.5866 4.58519 21.0638 4.94308 21.0638 5.38306V10.0107H18.9361V5.38306ZM12.9787 5.86177H14.2553V6.9788C14.2553 7.24282 13.9689 7.45751 13.617 7.45751C13.265 7.45751 12.9787 7.24276 12.9787 6.9788V5.86177ZM29.156 14.798H31.1002L31.6724 24.6675C30.7295 24.5952 30.1812 24.3683 29.5637 24.1128C28.7732 23.7857 27.8773 23.4149 26.1703 23.4149C24.4632 23.415 23.5674 23.7857 22.7769 24.1128C22.0264 24.4233 21.3782 24.6915 20.0003 24.6915C18.6221 24.6915 17.9739 24.4233 17.2234 24.1128C16.4328 23.7857 15.5368 23.4149 13.8298 23.4149C12.1228 23.4149 11.2268 23.7857 10.4363 24.1128C10.2585 24.1863 10.0864 24.2573 9.90886 24.3232C9.46964 24.4861 8.99855 24.616 8.32746 24.6675L8.89964 14.798H26.6026C26.9551 14.798 27.2409 14.5837 27.2409 14.3192C27.2409 14.0548 26.9551 13.8405 26.6026 13.8405H8.10425L8.27081 10.9682H31.7292L31.8957 13.8405H29.156C28.8035 13.8405 28.5177 14.0548 28.5177 14.3192C28.5177 14.5837 28.8035 14.798 29.156 14.798ZM36.8085 18.3085H32.5815L32.5261 17.3511H36.8085V18.3085Z" fill="white"/>
</svg>
