<svg width="48" height="24" viewBox="0 0 48 24" fill="none" xmlns="http://www.w3.org/2000/svg">
<path d="M46.6603 7.87563H44.0229C43.8602 6.73173 43.0904 5.73173 41.9746 5.08275V4.42718C41.9746 2.39986 39.8913 0.750488 37.3303 0.750488H35.3136C32.7526 0.750488 30.6693 2.39986 30.6693 4.42718V7.23663C30.5748 6.9714 30.4468 6.71721 30.289 6.47706V4.42718C30.289 2.39986 28.2057 0.750488 25.6448 0.750488H23.6279C21.0671 0.750488 18.9837 2.39986 18.9837 4.42718V6.47706C18.8259 6.71721 18.6979 6.9713 18.6034 7.23663V4.42718C18.6034 2.39986 16.52 0.750488 13.9592 0.750488H11.9424C9.38145 0.750488 7.29803 2.39986 7.29803 4.42718V5.08284C6.18238 5.73182 5.41239 6.73183 5.24983 7.87563H1.33974C0.600942 7.87563 0 8.35138 0 8.93626V20.6674C0 21.2022 0.547734 21.6357 1.22317 21.6357C1.8986 21.6357 2.44633 21.2022 2.44633 20.6674V12.2058H5.21669V15.3993C5.21669 15.9341 5.76442 16.3676 6.43985 16.3676H7.29803V16.8875C6.63226 16.8964 6.09578 17.3258 6.09578 17.855C6.09578 18.3842 6.63226 18.8135 7.29803 18.8224V20.6672V22.2809C7.29803 22.8157 7.84576 23.2492 8.5212 23.2492C9.19663 23.2492 9.74436 22.8157 9.74436 22.2809V20.6673V18.8233H13.1384V20.6673V22.281C13.1384 22.8158 13.6861 23.2493 14.3616 23.2493C15.037 23.2493 15.5847 22.8158 15.5847 22.281V20.6673V18.8225C16.2505 18.8136 16.7871 18.3843 16.7871 17.8551C16.7871 17.3259 16.2505 16.8964 15.5847 16.8876V16.3677H16.443C17.1185 16.3677 17.6662 15.9342 17.6662 15.3993V12.2059H18.4117V15.3993C18.4117 15.9342 18.9595 16.3677 19.6349 16.3677H20.4931V16.8876C19.8273 16.8965 19.2908 17.3259 19.2908 17.8551C19.2908 18.3843 19.8273 18.8136 20.4931 18.8225V20.6673V22.281C20.4931 22.8158 21.0408 23.2493 21.7162 23.2493C22.3917 23.2493 22.9394 22.8158 22.9394 22.281V20.6673V18.8233H26.3334V20.6673V22.281C26.3334 22.8158 26.8812 23.2493 27.5566 23.2493C28.232 23.2493 28.7798 22.8158 28.7798 22.281V20.6673V18.8225C29.4456 18.8136 29.982 18.3843 29.982 17.8551C29.982 17.3259 29.4456 16.8965 28.7798 16.8876V16.3677H29.6381C30.3135 16.3677 30.8612 15.9342 30.8612 15.3993V12.2059H31.6068V15.3993C31.6068 15.9342 32.1545 16.3677 32.8299 16.3677H33.6881V16.8876C33.0223 16.8965 32.4859 17.3259 32.4859 17.8551C32.4859 18.3843 33.0223 18.8136 33.6881 18.8225V20.6673V22.281C33.6881 22.8158 34.2358 23.2493 34.9113 23.2493C35.5867 23.2493 36.1344 22.8158 36.1344 22.281V20.6673V18.8233H39.5285V20.6673V22.281C39.5285 22.8158 40.0762 23.2493 40.7517 23.2493C41.4271 23.2493 41.9748 22.8158 41.9748 22.281V20.6673V18.8225C42.6406 18.8136 43.1771 18.3843 43.1771 17.8551C43.1771 17.3259 42.6406 16.8965 41.9748 16.8876V16.3677H42.8331C43.5086 16.3677 44.0563 15.9342 44.0563 15.3993V12.2059H45.5539V20.6675C45.5539 21.2023 46.1017 21.6358 46.7771 21.6358C47.4525 21.6358 48.0003 21.2023 48.0003 20.6675V8.93626C48 8.35138 47.3991 7.87563 46.6603 7.87563ZM39.5282 16.3676V16.8866H36.1342V16.3676H39.5282ZM41.6097 14.4309H34.053V8.32872C34.053 7.17639 35.2372 6.23894 36.6927 6.23894H38.97C40.4254 6.23894 41.6097 7.17639 41.6097 8.32872V14.4309ZM23.6279 2.68717H25.6448C26.8567 2.68717 27.8427 3.46775 27.8427 4.42718V4.65145C27.2105 4.42776 26.5112 4.30236 25.7751 4.30236H23.4978C22.7617 4.30236 22.0624 4.42776 21.4301 4.65145V4.42718C21.43 3.46765 22.416 2.68717 23.6279 2.68717ZM37.3303 2.68717C38.4993 2.68717 39.4553 3.41391 39.5218 4.32647C39.3404 4.31088 39.1564 4.30236 38.9699 4.30236H36.6926C35.2991 4.30236 34.0351 4.74857 33.1157 5.4696V4.42718C33.1157 3.46775 34.1017 2.68717 35.3136 2.68717H37.3303ZM17.6662 9.81231H18.4117V10.2691H17.6662V9.81231ZM30.8611 9.81231H31.6066V10.2691H30.8611V9.81231ZM16.1571 4.42708V5.4695C15.2375 4.74847 13.9736 4.30226 12.5802 4.30226H10.3027C10.1162 4.30226 9.93212 4.31079 9.75072 4.32638C9.81714 3.41391 10.7733 2.68707 11.9423 2.68707H13.959C15.1711 2.68717 16.1571 3.46765 16.1571 4.42708ZM2.44633 9.81231H5.21669V10.2691H2.44633V9.81231ZM13.1384 16.3676V16.8866H9.74436V16.3676H13.1384ZM15.2199 14.4309H7.66314V8.32872C7.66314 7.17639 8.84741 6.23894 10.3029 6.23894H12.5802C14.0356 6.23894 15.2199 7.17639 15.2199 8.32872V14.4309ZM26.3333 16.3676V16.8866H22.9393V16.3676H26.3333ZM28.4148 14.4309H20.8581V8.32872C20.8581 7.17639 22.0423 6.23894 23.4978 6.23894H25.7751C27.2305 6.23894 28.4148 7.17639 28.4148 8.32872V14.4309ZM44.056 9.81231H45.5537V10.2691H44.056V9.81231Z" fill="white"/>
</svg>
